# xmcd
#
# Track frame offsets: 
#        150
#        15503
#        32396
#        51615
#        67789
#        84044
#        101243
#        118010
#        136187
#        151323
#        167195
#
# Disc length: 2442 seconds
#
# Revision: 0
# Processed by: cddbd v1.5.2PL0 Copyright (c) Steve Scherf et al.
# Submitted via: ExactAudioCopy v1.3
#
DISCID=8109880b
DTITLE=Cartel De Santa  - Viejo Marihuano 
DYEAR=2016
DGENRE=Hip-Hop/Rap
TTITLE0=Volvio el sensei
TTITLE1=Leve
TTITLE2=Bailar y volar (feat. Millonario)
TTITLE3=Desde cuando
TTITLE4=Clika nostra (feat. Santa Estilo)
TTITLE5=Mucha marihuana
TTITLE6=Culon culito
TTITLE7=El loco mas loco
TTITLE8=Si estuviera en dubai
TTITLE9=Somosa chidos feat. Bicho Ramirez)
TTITLE10=Soy quien soy
EXTD=
EXTT0=
EXTT1=
EXTT2=
EXTT3=
EXTT4=
EXTT5=
EXTT6=
EXTT7=
EXTT8=
EXTT9=
EXTT10=
PLAYORDER=
